<?xml version="1.0" encoding="utf-8"?>
<!-- Generator: Adobe Illustrator 26.0.2, SVG Export Plug-In . SVG Version: 6.00 Build 0)  -->
<svg version="1.1" id="圖層_1" xmlns="http://www.w3.org/2000/svg" xmlns:xlink="http://www.w3.org/1999/xlink" x="0px" y="0px"
	 viewBox="0 0 548 417" style="enable-background:new 0 0 548 417;" xml:space="preserve">
<path d="M448.3,104.2l-2-1.8l-37.6,0.7l-36.6-43.8c-6.2-7.4-37.3-44.6-38.7-45.4c-2.2-1.2-5.3-1.2-6.9,0.1l0,0
	c-1.1,0.8-30.1,33.9-30.4,34.2c-16.1,18.3-31.7,36.1-34.7,39.5c-3.8,4.3-5.1,5.2-5.4,5.4c-9.6-0.6-119.6,4.4-120.5,4.6
	c-2.9,0.6-4.1,1.3-6,3.7c-1.2,1.4-18.6,25.3-38.8,53.1c-20.2,27.8-41.1,56.4-46.3,63.5c-5.2,7.1-13.6,18.7-18.7,25.6
	c-10.9,15-13.3,18.6-9.5,22.2c1.7,1.6,2.6,1.6,17.8,1.6h14.2l3.1,55.4c1.1,19.7,3.3,57.1,3.5,58.2c0.2,1.2,1.1,2.4,2.1,2.9
	c0.5,0.3,1.4,0.8,205.8,0.9c41.4,0,74.5,0,100.8,0c103.7,0,104-0.2,105.3-1.4c1.5-1.4,1.6-2.7,1.3-4.9
	c-0.2-3.5,8.4-107.1,10.3-124.6l0.2-2.2l17,0.4c7.4,0.2,18.9,0.3,20.3,0c3.3-0.8,3.5-4.4,3.5-7.9c0-2.8-2-6.9-35.7-70.8
	C485.3,172.7,450,105.8,448.3,104.2L448.3,104.2z M469,260c-4.4-0.3-12.2-0.5-23.6-0.7c-24.4-0.4-26.4-0.3-27.4,0.6
	c-1.4,1.4-1,3.5,0.8,4.3c1,0.5,10.3,0.8,28.2,1.1c11.1,0.2,17.7,0.3,21.6,0.2c-0.9,10.9-2.2,27-4,46.9c-0.1,0.6-4.6,52.5-5.3,61.3
	c-3.3,0.2-14.3,0.3-29.3,0.3h-29.2l0.3-5.6c0.2-3.9,1.2-32.7,2.3-62.8c1.1-31.1,1.9-52.2,2-55.6c2.4-0.3,12.8,0,37.4,0.6
	c13.6,0.4,23.6,0.7,26.9,0.9C469.5,253.1,469.3,256,469,260L469,260z M324.4,374.2c-34.5,0-60.1-0.2-65.8-0.3
	c-1.5-62.6-6.6-236.7-7.2-238.4c-0.4-1-1.1-2.3-2-2.8c-1-0.6-6.1-0.9-8.3-1l-3.9-0.2l8.7-9.9c5.9-6.7,16.4-18.6,23.5-26.6l48.6-55.2
	c5.8-6.6,10.2-11.5,12-13.5c1.8,2,5.8,6.8,11.2,13.2c26.2,31.3,65.1,77.8,72.3,86.4c2.9,3.5,5,6.1,6.1,7.6c-0.6,0-1.2,0.1-2,0.1
	c-2.3,0-6.8,0.2-10.1,0.4c-5.2,0.3-6.7,0.5-7.9,2.4c-0.9,1.3-1.2,6.4-5.3,119.6c-2,54.8-3.9,110.4-4.2,117.8
	C386.9,374.1,371,374.2,324.4,374.2L324.4,374.2z M139,303.3c1.6-5.7,3.4-9.2,6.4-12.6c3.3-3.6,6.9-5.8,11.1-6.7
	c3.6-0.8,6.3-0.5,10.7,1.1c3.9,1.5,8.9,6.3,11.3,11.1c3.4,6.8,3.5,7.7,3.5,45v33h-21.6c-11,0-19.2-0.2-21.9-0.3
	c-0.1-3.6-0.3-16.4-0.4-33.1C138,310.2,138.1,306.7,139,303.3L139,303.3z M152.5,273.8c-11.6,3.7-20,13-23.8,26.2
	c-1.4,4.9-1.4,5.2-1.2,40.3l0.2,33.8H96.4c-19.9,0-29.1,0-31.3-0.4c-0.5-9-5.9-102.4-6.2-106l-0.1-0.6l16.7-0.3
	c15.3-0.3,19.2-0.7,20.6-1.2c1.4-0.6,4.5-3.6,15.7-17c7.3-8.7,19.9-23.7,28-33.4c8.1-9.7,16.3-19.4,18.1-21.6c1.2-1.4,2.2-2.4,2.8-3
	c2.8,3,13.1,14.9,26.6,30.7c14.8,17.3,30.1,35.3,34,39.9c3.6,4.2,7.5,8.8,8,9.3c0.4,0.4,1.1,1.2,9.1,1.8c3,0.2,5.3,0.5,6.5,0.6
	c0.2,4,0.7,19.8,1.3,40.7c0.6,22.9,1.3,46.2,1.5,51.8l0.3,8.7h-55.2l-0.4-71.5l-1.7-5.3c-3.8-11.1-11.2-19.2-21.1-22.9
	C165.2,272.8,156.6,272.5,152.5,273.8L152.5,273.8z M235.6,117.1c-6.5,7.4-13.8,15.9-14.4,16.8c-0.8,1.2-1,2.6-0.6,4
	c0.3,1.3,1.2,2.5,2.4,3.1c1.5,0.8,8.7,1.1,10.9,1.2c3.6,0.1,6.3,0.2,7.7,0.3c0.5,11.6,2.9,107.9,3,119.5c-2.4,0-7.5-0.3-8.9-0.6
	c-9.4-11.2-70.6-82.8-72-83.5c-3.5-1.9-5.7-0.4-9.4,3.8c-2.1,2.3-17.4,20.5-33.4,39.7l-29.4,35H80.7c-6.3,0-21.1,0.2-32.4,0.4
	c-8.7,0.2-15.5,0.3-18.4,0.1C41,241,135.7,110.9,137.7,108.6c1.4-0.7,15.4-1.3,54.9-2.8c26.2-1,48.7-1.9,54.6-2.1
	C245.1,106.2,240.9,111,235.6,117.1L235.6,117.1z M409.4,144.7c1.5-0.2,4.8-0.5,9.3-0.7c5.1-0.3,11.2-0.8,12.7-1.2
	c3.4-0.9,5-3.3,4.2-6.3c-0.4-1.8-9.4-12.5-10.4-13.7l-8-9.5l1.8-0.1c2.4-0.2,8.5-0.4,13.6-0.4l8.4-0.1l0.8,1.3
	c1.7,2.7,59.4,111.7,67.5,127.7c-14.1-0.1-92.8-2.1-103.6-2.5C405.9,228.7,408.8,154.1,409.4,144.7L409.4,144.7z M331.4,118.9
	c1,0,2.1-0.1,3.1-0.3c6.8-1.1,12.7-5.9,15.9-12.7c1.4-3.1,1.7-4.7,1.7-9.2c0-4.5-0.3-6.1-1.8-9.2c-2-4.1-5.7-7.8-9.7-9.7
	c-3.4-1.6-10.5-1.7-14.6-0.2h0c-3.3,1.2-8.1,5.2-10.3,8.7c-5.2,8.3-4.3,20,2.2,26.7C321.5,116.8,326.3,118.9,331.4,118.9
	L331.4,118.9z M324.6,92.5c1.5-2.6,4-4.4,6.7-5.1c0.6-0.1,1.2-0.2,1.8-0.2c1.4,0,2.8,0.4,3.9,1.2c4,2.7,5.4,7,4,11.9
	c-0.8,2.6-3.6,6-6.1,7.3c-1.4,0.7-5.1,0.7-7.2-0.3c-1.9-0.9-3.4-2.8-4.1-5.2C322.5,98.8,322.9,95.3,324.6,92.5L324.6,92.5z
	 M307.3,163.6c-1.7,0-3.2,0-4.3,1.2c-2,2.1-1.9,6.4-1.4,24.5l0.2,6.2c0.4,13.8,0.8,28.8,1,30.2c0.6,4,1.3,4.9,11.8,4.9
	c3.3,0,7.5-0.1,13.1-0.2c21.7-0.5,23.5-0.5,24.4-4.6c0.6-2.7,3.1-56.3,2.7-58c-1-3.9-3.6-4-23.4-4.2c-10.3-0.1-20.6-0.1-22.9,0
	L307.3,163.6z M344.2,175.2c0,1.3-0.3,7.8-0.7,15.3c-1,0-2.2,0-3.7,0l-8.2,0l0.2-9.4c0.1-3.1,0.1-5.3,0-6.7h12.4L344.2,175.2z
	 M321.1,196.4l4.7,0.3l-0.4,9.5c-0.4,9.2-0.4,9.6,0.8,10.8c1.6,1.6,2.2,1.6,3.7,0.1c1.1-1.1,1.2-2,1.2-8.1c0-3.8,0.2-8.1,0.4-9.7
	l0.4-2.8h7.1c1.5,0,2.9,0,4.1-0.1c-0.5,9.6-1.1,19.5-1.4,22.7c-2.2,0.1-7.4,0.3-14.4,0.5l-14.1,0.4l-0.4-14
	c-0.2-8.5-0.6-19.4-0.8-24.3l-0.3-7.5h14.5c0,0.6-0.1,1.2-0.1,1.9c0,2.3-0.2,6.5-0.4,9.2l-0.4,5l-4.9,0.2c-4.7,0.2-4.9,0.2-5.5,1.9
	C314.2,195.1,315.7,196,321.1,196.4L321.1,196.4z M337.8,264.6c-33.7-1-35.8-0.3-37,1c-1.4,1.7-1.4,2.4-0.4,36.2
	c0.8,24.6,1.1,28.3,1.9,29.6c1.3,2,2.5,2,9.1,2c11.1,0,35.6-1.1,37.6-2.4c1.1-0.7,2.1-2.2,2.3-3.8c0.5-2.9,4-51.4,4-55.2
	C355.5,265.1,354.1,265,337.8,264.6L337.8,264.6z M343.4,291.3c-1,0-2.1,0-3.5,0c-5.9,0.1-8-0.1-8.4-0.6c-0.3-0.4-0.5-4.4-0.5-8.8
	c0-2.6-0.1-5.1-0.3-6.8c6.8,0.2,11.5,0.4,13.5,0.6C344.2,278.1,343.9,284.3,343.4,291.3L343.4,291.3z M331.2,322.1
	c0.1-0.4,0.1-0.7,0.2-1.2c0.2-1.9,0.2-4.2,0-5.3c-0.2-1.1-0.2-5.7,0-10.3l0.4-8.3h7.6c1.4,0,2.5,0,3.6-0.1
	c-0.7,10.2-1.4,20.8-1.8,24.6C339.6,321.6,335.8,321.8,331.2,322.1L331.2,322.1z M310.3,276.3l-0.2-1.7l15.6,0.4
	c-0.1,1.4-0.1,3.6,0,7.3l0.2,8.7l-4.5-0.2c-3.2-0.1-7.4,0.1-10.5,0.5C310.7,284,310.5,277.8,310.3,276.3L310.3,276.3z M314,296.4
	c3-0.4,6.8-0.6,8.8-0.3l3.5,0.4l-0.4,13.4c-0.2,7.5-0.3,10.8-0.1,12.4c-1.5,0.1-3,0.1-4.5,0.2l-9.3,0.3l-0.3-4.3
	c-0.2-3.1-0.5-12.8-0.7-21.8C311.9,296.7,312.9,296.6,314,296.4L314,296.4z M375.2,95.1c0,1.7-1.1,2.8-2.8,2.8
	c-1.1,0-3.2-2.3-9.4-10.1c-24.9-31.5-32.1-40.4-32.6-40.4c-0.3,0-5.6,6-11.9,13.4c-6.3,7.4-17.5,20.5-25,29.3
	c-7.5,8.8-17.2,20.1-21.6,25.3c-4.4,5.2-8.5,9.6-9.2,9.9c-1.8,0.7-4-1.3-3.5-3.2c0.2-0.8,5-6.9,10.7-13.6c5.7-6.7,16.5-19.3,24-28.1
	c7.5-8.8,18.3-21.4,23.9-27.9c11.2-13.1,11.6-13.4,15.5-10.6C336.3,43.9,375.2,93.5,375.2,95.1L375.2,95.1z M390.8,122
	c-4.2-5-10.8-13.8-10.8-14.5c0-0.3,0.3-1.1,0.6-1.8c0.6-1.2,2.7-1.5,4-0.7c1.6,1,12.8,16.2,12.9,17.4c0,1.7-1.1,2.7-2.8,2.7
	C394,125.1,392.6,124,390.8,122L390.8,122z M146,119.4c-0.6,1-10.7,14.8-22.3,30.5c-15.7,21.4-21.5,28.8-22.5,28.9
	c-1.8,0.3-3.1-0.9-3.1-2.7c0-1.2,14.6-21.8,30.8-43.5c1.2-1.7,4.6-6.3,7.6-10.3c2.9-4,5.7-7.6,6.3-8c1.3-1,2.3-0.9,3.4,0.2
	C147.5,115.8,147.4,117.2,146,119.4L146,119.4z M163.6,136.9c-8.7,11.9-10.4,13.9-11.9,14.1c-1.8,0.2-3.3-1.1-3.3-2.7
	c0-0.9,19.6-28,21.1-29.2c1.2-0.9,1.7-0.9,3.2-0.1C175.2,120.5,174.1,122.6,163.6,136.9L163.6,136.9z M155.1,126.2
	c0,0.9-4.8,8-12.8,18.9c-13,17.8-14.4,19.3-16.6,17.5c-1.9-1.6-0.9-3.7,8-15.9c15.3-21.1,15.9-21.9,16.9-22.6
	C152.7,122.5,155.1,123.6,155.1,126.2L155.1,126.2z M492.6,226.3c0,1.9-1.4,3.1-3.2,2.6c-1.2-0.3-3.8-4.7-13.3-22.2
	c-6.5-12-11.9-22.2-11.9-22.7c0-0.5,0.4-1.3,1-1.8c1.4-1.4,3.1-1.1,4.6,1C472.6,187.3,492.6,224.8,492.6,226.3L492.6,226.3z
	 M167.2,216.8l-5.1-6.5l-2.4,2.3c-1.3,1.3-9.9,11.3-19,22.3c-9.1,11-17.1,20.2-17.6,20.4c-2.7,1-4.7-2.1-3-4.7
	c0.5-0.7,7.1-8.8,14.6-18c7.5-9.1,15.9-19.4,18.6-22.7c2.7-3.3,5.3-6.4,5.8-6.8c1.7-1.3,3.7-0.8,5.8,1.6c3,3.3,14.8,18.4,15.2,19.4
	c0.6,1.4-0.9,3.8-2.4,3.8C176.2,227.9,174.5,226.2,167.2,216.8L167.2,216.8z M145.4,299.7c-0.6-1.6-0.3-2.5,1.4-4.8
	c1.6-2.2,5.1-4.6,8.3-5.6c5.3-1.7,13,0.5,16.6,4.8c3.7,4.4,6.2,12.5,4.5,14.6c-0.9,1.1-3.2,1.2-4.1,0.1c-0.3-0.4-0.8-1.5-1-2.5
	c-2.1-9.6-8.7-14-15.9-10.5c-1.4,0.7-3.4,2.2-4.2,3.3C149,301.6,146.2,301.9,145.4,299.7L145.4,299.7z M175,314.4
	c1.1,0,2,0.4,2.4,1.2c0.4,0.7,0.6,8.1,0.6,19.6c0,16-0.1,18.6-1,19.4c-1.3,1.3-3,1.1-4.1-0.4c-0.8-1.1-0.9-4-0.9-19.4
	c0-11.3,0.2-18.5,0.6-19.2C173,314.8,173.8,314.4,175,314.4L175,314.4z"/>
</svg>
